{"title":"Fuck the Babysitter Innocent Redhead Honey XXX-=MTR=-","uid":6580588,"size":380471413,"categoryP":"porn","categoryS":"movie_clips","magnet":"?xt=urn:btih:d2d16dc894d97a740621f9b1e46632e29b9dfe20&amp;dn=Fuck+the+Babysitter+Innocent+Redhead+Honey+XXX-%3DMTR%3D-&amp;tr=udp%3A%2F%2Ftracker.openbittorrent.com%3A80&amp;tr=udp%3A%2F%2Fopen.demonii.com%3A1337&amp;tr=udp%3A%2F%2Ftracker.coppersurfer.tk%3A6969&amp;tr=udp%3A%2F%2Fexodus.desync.com%3A6969","seeders":0,"leechers":1,"uploader":"HDvideos","files":-1,"time":1312383277,"description":"Fuck the Babysitter Innocent Redhead Honey XXX-=MTR=-\n\nCheck out MY latest Uploads:\n &lt;a href=&quot;\nhttp://thepiratebay.se/user/HDvideos/0/7&quot; rel=&quot;nofollow&quot; target=&quot;_NEW&quot;&gt;\nhttp://thepiratebay.se/user/HDvideos/0/7&lt;/a&gt;\n\nStay updated with us....\n\nSeed after downloading....\n\nEnjoY with HDvideos..\n\nTeam Mastitorrents\n\nSay thanks if u like my posts\n\nGive ur valuable feedbacks\n\nQuality Uploads from HDvideos\n\n-=MT=-Uploader-=HDvideos=-\n\nRecommended Player:VLC Player\n\nFormat                           : Windows Media\nFile size                        : 363 MiB\nDuration                         : 20mn 18s\nOverall bit rate mode            : Constant\nOverall bit rate                 : 2 497 Kbps\nMaximum Overall bit rate         : 2 510 Kbps\nEncoded date                     : UTC 2007-07-24 07:26:48.200\n\nVideo\nID                               : 2\nFormat                           : WMV2\nCodec ID                         : WMV2\nCodec ID/Info                    : Windows Media Video 8\nDescription of the codec         : Windows Media Video V8\nDuration                         : 20mn 18s\nBit rate mode                    : Constant\nBit rate                         : 2 360 Kbps\nWidth                            : 720 pixels\nHeight                           : 480 pixels\nDisplay aspect ratio             : 3:2\nFrame rate                       : 29.970 fps\nStandard                         : NTSC\nBit depth                        : 8 bits\nBits/(Pixel*Frame)               : 0.228\nStream size                      : 343 MiB (95%)\nLanguage                         : English (US)\n\nAudio\nID                               : 1\nFormat                           : WMA\nFormat version                   : Version 2\nCodec ID                         : 161\nCodec ID/Info                    : Windows Media Audio\nDescription of the codec         : Windows Media Audio 9.2 - 128 kbps, 48 kHz, stereo 1-pass CBR\nDuration                         : 20mn 18s\nBit rate mode                    : Constant\nBit rate                         : 128 Kbps\nChannel(s)                       : 2 channels\nSampling rate                    : 48.0 KHz\nBit depth                        : 16 bits\nStream size                      : 18.6 MiB (5%)\nLanguage                         : English (US)\n","torrent":{"xt":"urn:btih:d2d16dc894d97a740621f9b1e46632e29b9dfe20","amp;dn":"Fuck+the+Babysitter+Innocent+Redhead+Honey+XXX-%3DMTR%3D-","amp;tr":["udp%3A%2F%2Ftracker.openbittorrent.com%3A80","udp%3A%2F%2Fopen.demonii.com%3A1337","udp%3A%2F%2Ftracker.coppersurfer.tk%3A6969","udp%3A%2F%2Fexodus.desync.com%3A6969"],"infoHash":"d2d16dc894d97a740621f9b1e46632e29b9dfe20","infoHashBuffer":{"type":"Buffer","data":[210,209,109,200,148,217,122,116,6,33,249,177,228,102,50,226,155,157,254,32]},"announce":[],"urlList":[]}}